<?xml version="1.0"?>
<svg xmlns="http://www.w3.org/2000/svg" xmlns:xlink="http://www.w3.org/1999/xlink" xmlns:svgjs="http://svgjs.com/svgjs" version="1.1" width="512" height="512" x="0" y="0" viewBox="0 0 512 512" style="enable-background:new 0 0 512 512" xml:space="preserve" class=""><g><path xmlns="http://www.w3.org/2000/svg" d="m356.8 72.864a89.119 89.119 0 0 0 -18.236 1.865 85.211 85.211 0 0 0 -162.39 16.382 78.666 78.666 0 0 0 -100.214 113.73c22.292 34 34.04 72.621 34.04 111.7v101.459h-5.008a11.024 11.024 0 0 0 -10.992 10.992v50.238a10.8 10.8 0 0 0 10.77 10.77h311.43a10.836 10.836 0 0 0 10.8-10.8v-50.327a10.905 10.905 0 0 0 -10.873-10.873h-3.127v-112.162c0-34.4 8.264-67.515 24.226-95.765a91.379 91.379 0 0 0 11.648-44.925c0-50.885-41.351-92.284-92.074-92.284zm69.978 131.306c-16.978 30.048-25.778 65.204-25.778 101.668v112.162h-66.043l6.357-57.491a6 6 0 1 0 -11.928-1.318l-6.502 58.809h-54.884v-84.991a6 6 0 0 0 -12 0v84.991h-54.195l-6.5-58.809a6 6 0 1 0 -11.927 1.318l6.354 57.491h-13.732a6 6 0 0 0 0 12h239v48h-309v-48h30a6 6 0 0 0 0-12h-14v-101.463c0-41.419-12.427-82.318-36-118.276a66.58 66.58 0 0 1 88.7-94.351c-.045 1.135-.085 2.271-.085 3.417a6 6 0 0 0 12 0 73.226 73.226 0 0 1 146.451 0 6 6 0 0 0 12 0 85.085 85.085 0 0 0 -2.661-21.127 77.442 77.442 0 0 1 14.4-1.338c44.105 0 79.987 36.015 79.987 80.284a79.274 79.274 0 0 1 -10.014 39.024z" fill="#efc21c" data-original="#000000" style="" class=""/><path xmlns="http://www.w3.org/2000/svg" d="m138.742 303.008a6 6 0 0 0 -5.795 6.2c.082 2.431.124 4.9.124 7.33a6 6 0 0 0 12 0c0-2.566-.044-5.169-.131-7.735a6 6 0 0 0 -6.198-5.795z" fill="#efc21c" data-original="#000000" style="" class=""/><path xmlns="http://www.w3.org/2000/svg" d="m136.873 291.268a6.011 6.011 0 0 0 5.949-6.836 239.958 239.958 0 0 0 -37.557-98.783 43.82 43.82 0 0 1 -7.053-24.126 6 6 0 0 0 -12 0 55.783 55.783 0 0 0 9.018 30.706 228.062 228.062 0 0 1 35.709 93.871 6 6 0 0 0 5.934 5.168z" fill="#efc21c" data-original="#000000" style="" class=""/></g></svg>
